<?xml version="1.0" standalone="no"?>
<!DOCTYPE svg PUBLIC "-//W3C//DTD SVG 20010904//EN"
 "http://www.w3.org/TR/2001/REC-SVG-20010904/DTD/svg10.dtd">
<svg version="1.0" xmlns="http://www.w3.org/2000/svg"
 width="1504.000000pt" height="240.000000pt" viewBox="0 0 1504.000000 240.000000"
 preserveAspectRatio="xMidYMid meet">

<g transform="translate(0.000000,240.000000) scale(0.100000,-0.100000)"
fill="#222222" stroke="none">
<path d="M13557 2394 c-4 -4 -7 -72 -7 -150 0 -84 -4 -145 -10 -149 -6 -4 -10
-55 -10 -119 0 -89 -3 -116 -15 -126 -8 -7 -15 -18 -15 -25 0 -16 -29 -73 -41
-80 -16 -10 -10 -81 7 -96 15 -12 14 -14 -7 -19 l-24 -6 -3 -547 -2 -547 -104
0 c-80 0 -106 -3 -116 -15 -10 -13 -10 -19 5 -35 17 -18 17 -20 1 -26 -11 -4
-27 3 -45 20 -26 25 -34 27 -97 24 -63 -3 -69 -5 -72 -25 -2 -15 -10 -23 -23
-23 -18 0 -19 9 -19 153 0 106 -4 157 -12 165 -7 7 -29 12 -49 12 -37 0 -38 1
-41 43 -2 32 -8 44 -25 52 -18 8 -23 19 -25 65 -3 55 -3 55 -38 60 -31 4 -36
9 -40 40 -5 34 -6 35 -50 35 -44 0 -45 -1 -48 -33 -2 -24 -10 -35 -28 -42 -21
-8 -24 -15 -24 -64 0 -49 -2 -55 -22 -58 -23 -3 -23 -5 -26 -175 l-2 -173 -58
0 c-50 0 -59 3 -67 23 -8 18 -19 22 -67 25 l-58 3 0 144 c0 85 -4 146 -10 150
-5 3 -10 35 -10 69 0 42 -5 67 -14 75 -9 8 -55 11 -137 9 l-124 -3 -5 -60 -5
-60 -85 -5 c-82 -5 -85 -6 -88 -30 -2 -14 -7 -34 -12 -45 -5 -11 -10 -31 -12
-45 -2 -20 -9 -26 -35 -28 -33 -3 -33 -3 -33 41 0 33 -6 49 -23 65 -22 21 -33
22 -175 22 -90 0 -153 4 -157 10 -3 6 -14 10 -24 10 -10 0 -24 7 -31 15 -17
20 -123 21 -140 1 -6 -8 -33 -16 -58 -18 -45 -3 -47 -4 -50 -35 l-3 -33 -84 0
c-79 0 -84 1 -87 23 -3 20 -9 22 -72 25 -74 3 -96 16 -96 54 -1 13 -9 33 -19
46 -27 32 -100 32 -121 0 -29 -45 -40 -71 -40 -93 0 -12 -7 -28 -15 -35 -8 -7
-15 -25 -15 -41 0 -26 -3 -29 -35 -29 l-35 0 0 130 c0 129 0 131 -24 140 -20
7 -25 17 -28 52 l-3 43 -172 3 -172 2 -3 -47 c-2 -38 -7 -49 -22 -51 -35 -7
-55 -43 -56 -99 l0 -53 -135 0 -135 0 0 -94 c0 -53 -4 -98 -10 -101 -5 -3 -10
3 -10 13 0 11 -7 25 -15 32 -11 9 -15 45 -17 169 l-3 156 -97 3 c-86 2 -98 5
-98 20 0 10 -4 22 -9 28 -5 5 -11 23 -13 39 -3 28 -6 30 -47 33 -51 4 -81 -17
-81 -58 0 -15 -7 -33 -15 -40 -12 -10 -15 -46 -15 -207 0 -127 -3 -192 -10
-188 -6 4 -10 57 -10 125 l0 119 -72 3 -73 3 -3 223 -2 222 -248 -2 -247 -3
-3 -232 -2 -232 -48 -3 c-40 -3 -47 -6 -50 -25 -2 -13 -8 -23 -13 -23 -5 0 -9
65 -9 153 0 148 -1 154 -23 175 -21 20 -34 22 -133 22 -103 0 -112 -2 -132
-23 -21 -22 -22 -33 -22 -167 0 -168 -18 -184 -22 -20 l-3 105 -30 3 c-20 2
-34 11 -40 25 -9 19 -18 22 -65 22 l-55 0 -5 -35 c-4 -31 -9 -36 -40 -40 -35
-5 -35 -5 -38 -62 -2 -40 -7 -58 -16 -58 -8 0 -19 -7 -26 -15 -7 -8 -20 -15
-30 -15 -9 0 -24 -8 -33 -18 -14 -16 -17 -44 -17 -185 0 -92 -3 -167 -7 -167
-4 0 -20 12 -35 27 l-28 27 0 137 c0 104 -3 139 -14 148 -9 8 -55 11 -137 9
l-124 -3 -3 -146 -3 -146 -29 -27 c-16 -14 -32 -26 -35 -26 -3 0 -5 73 -5 163
-1 143 -3 165 -19 184 -11 13 -26 23 -34 23 -8 0 -20 7 -27 15 -7 8 -21 15
-31 15 -15 0 -19 10 -21 57 -3 57 -3 58 -35 61 -29 3 -33 7 -33 31 0 40 -20
53 -77 49 -41 -3 -48 -6 -51 -25 -3 -18 -10 -23 -31 -23 -45 0 -51 -15 -51
-128 0 -66 -4 -101 -10 -97 -6 4 -10 64 -10 146 0 180 2 178 -150 178 -153 0
-150 4 -150 -193 0 -86 -3 -156 -8 -156 -4 0 -12 10 -17 23 -8 17 -20 23 -52
25 l-43 3 -2 232 -3 232 -250 0 -250 0 -3 -222 -2 -222 -73 -3 -72 -3 -3 -123
c-2 -76 -6 -121 -12 -117 -6 4 -10 86 -10 201 0 123 -4 194 -10 194 -5 0 -10
12 -10 28 -1 15 -9 37 -20 50 -16 19 -27 23 -62 20 -40 -3 -43 -5 -46 -35 -2
-17 -10 -37 -18 -43 -8 -7 -14 -19 -14 -26 0 -11 -20 -14 -88 -14 -55 0 -92
-4 -100 -12 -8 -8 -12 -58 -12 -158 0 -120 -3 -153 -17 -181 l-18 -34 -5 100
-5 100 -135 5 -135 5 -3 55 c-3 58 -22 90 -53 90 -14 0 -19 10 -21 48 l-3 47
-175 0 -175 0 -3 -47 c-3 -39 -6 -47 -25 -50 -21 -3 -22 -8 -25 -136 l-3 -132
-34 0 c-32 0 -35 3 -35 29 0 17 -4 33 -10 36 -5 3 -10 19 -10 34 0 16 -7 34
-15 41 -8 7 -15 20 -15 30 0 28 -33 50 -77 50 -46 0 -73 -23 -73 -62 0 -40
-28 -57 -100 -60 -56 -3 -66 -6 -75 -25 -9 -21 -16 -23 -92 -23 l-82 0 -3 33
c-3 30 -6 32 -45 35 -23 2 -47 10 -53 18 -17 20 -133 19 -150 -1 -7 -8 -21
-15 -31 -15 -11 0 -19 -4 -19 -10 0 -6 -58 -10 -152 -10 -179 -1 -195 -7 -200
-81 -3 -42 -5 -44 -35 -47 -31 -3 -33 -1 -33 26 0 16 -6 35 -14 42 -8 6 -16
26 -18 43 l-3 32 -82 3 -83 3 0 53 c0 34 -5 58 -14 65 -9 8 -55 11 -137 9
l-124 -3 -3 -72 c-2 -47 -8 -75 -17 -83 -12 -10 -15 -42 -15 -151 l0 -138 -57
-3 c-51 -3 -58 -6 -61 -25 -3 -21 -9 -23 -62 -23 l-60 0 -2 168 c-3 161 -4
167 -25 177 -18 8 -23 19 -25 65 -3 48 -6 55 -25 58 -18 3 -23 10 -23 31 0 35
-17 51 -55 51 -38 0 -55 -16 -55 -51 0 -24 -5 -28 -32 -31 -33 -3 -33 -4 -36
-60 -3 -50 -6 -57 -25 -60 -19 -3 -22 -10 -25 -50 l-3 -47 -47 -3 -47 -3 -5
-160 c-5 -152 -6 -160 -25 -160 -13 0 -21 8 -23 23 -3 20 -8 22 -74 22 -63 0
-72 -3 -90 -25 -11 -14 -28 -25 -39 -25 -22 0 -23 4 -7 29 6 10 8 26 5 35 -5
13 -23 16 -112 16 l-105 0 -2 543 -3 542 -22 10 c-13 5 -23 18 -23 27 0 16
-12 18 -128 18 -131 0 -152 -6 -152 -41 0 -9 -7 -22 -15 -29 -13 -10 -15 -52
-15 -256 0 -153 -4 -244 -10 -244 -6 0 -11 -102 -12 -272 l-3 -273 -72 -3
c-65 -3 -72 -5 -75 -25 -3 -20 -10 -22 -88 -27 -79 -5 -85 -7 -88 -27 -2 -13
-11 -23 -20 -24 -9 0 -30 -9 -47 -20 -16 -10 -37 -22 -45 -25 -25 -10 -74 -34
-90 -43 -8 -5 -31 -17 -50 -25 -19 -9 -42 -21 -50 -25 -8 -5 -31 -17 -50 -25
-19 -9 -42 -21 -50 -25 -8 -5 -31 -17 -50 -25 -19 -9 -42 -21 -50 -25 -8 -5
-31 -17 -50 -25 -19 -9 -42 -21 -50 -25 -8 -5 -31 -17 -50 -25 -19 -9 -42 -21
-50 -25 -8 -5 -31 -17 -50 -25 -19 -9 -42 -21 -50 -25 -8 -5 -32 -17 -52 -25
-20 -9 -40 -21 -43 -26 -4 -7 2642 -10 7516 -10 6685 0 7520 2 7509 15 -7 8
-18 15 -25 15 -16 0 -73 29 -80 41 -4 5 -15 9 -26 9 -10 0 -19 5 -19 10 0 6
-8 10 -19 10 -10 0 -24 7 -31 15 -7 8 -21 15 -31 15 -11 0 -19 5 -19 10 0 6
-8 10 -19 10 -10 0 -24 7 -31 15 -7 8 -21 15 -31 15 -11 0 -19 5 -19 10 0 6
-8 10 -19 10 -10 0 -24 7 -31 15 -7 8 -21 15 -31 15 -11 0 -19 5 -19 10 0 6
-8 10 -19 10 -10 0 -24 7 -31 15 -7 8 -21 15 -31 15 -11 0 -19 5 -19 10 0 6
-8 10 -19 10 -10 0 -24 7 -31 15 -7 8 -20 15 -29 16 -9 0 -29 9 -46 20 -16 10
-37 22 -45 25 -25 10 -74 34 -90 43 -8 5 -31 16 -51 25 -20 9 -39 25 -42 36
-5 18 -13 20 -85 20 -76 0 -81 1 -84 23 -3 20 -9 22 -75 25 l-73 3 0 268 c0
227 -2 271 -15 281 -13 10 -15 52 -15 256 0 156 -4 244 -10 244 -5 0 -10 8
-10 19 0 10 -7 24 -15 31 -10 8 -15 31 -16 64 0 32 -8 62 -20 81 -10 17 -21
37 -25 45 -3 8 -10 23 -15 32 -5 10 -9 44 -9 77 0 39 -5 63 -15 71 -12 10 -15
48 -17 194 l-3 181 -30 3 c-17 2 -34 0 -38 -4z m-9377 -1628 c0 -3 -4 -8 -10
-11 -5 -3 -10 -1 -10 4 0 6 5 11 10 11 6 0 10 -2 10 -4z m6700 0 c0 -3 -4 -8
-10 -11 -5 -3 -10 -1 -10 4 0 6 5 11 10 11 6 0 10 -2 10 -4z m820 -151 c0 -8
-4 -15 -10 -15 -5 0 -10 7 -10 15 0 8 5 15 10 15 6 0 10 -7 10 -15z m-8350 -5
c0 -5 -2 -10 -4 -10 -3 0 -8 5 -11 10 -3 6 -1 10 4 10 6 0 11 -4 11 -10z"/>
</g>
</svg>
