<?xml version="1.0" encoding="UTF-8"?>
<svg version="1.1" xmlns="http://www.w3.org/2000/svg" width="72" height="50">
<path d="M0 0 C1.32 0 2.64 0 4 0 C4 0.66 4 1.32 4 2 C5.32 2 6.64 2 8 2 C8 2.66 8 3.32 8 4 C9.32 4 10.64 4 12 4 C12 4.66 12 5.32 12 6 C13.32 6 14.64 6 16 6 C16 6.66 16 7.32 16 8 C16.66 8 17.32 8 18 8 C18 8.66 18 9.32 18 10 C19.32 10 20.64 10 22 10 C22 10.66 22 11.32 22 12 C23.32 12 24.64 12 26 12 C26 12.66 26 13.32 26 14 C26.66 14 27.32 14 28 14 C28 14.66 28 15.32 28 16 C29.32 16 30.64 16 32 16 C32 16.66 32 17.32 32 18 C33.32 18 34.64 18 36 18 C36 18.66 36 19.32 36 20 C37.32 20 38.64 20 40 20 C40 20.66 40 21.32 40 22 C40.66 22 41.32 22 42 22 C42 23.98 42 25.96 42 28 C41.34 28 40.68 28 40 28 C40 28.66 40 29.32 40 30 C38.68 30 37.36 30 36 30 C36 30.66 36 31.32 36 32 C34.68 32 33.36 32 32 32 C32 32.66 32 33.32 32 34 C30.68 34 29.36 34 28 34 C28 34.66 28 35.32 28 36 C27.34 36 26.68 36 26 36 C26 36.66 26 37.32 26 38 C24.68 38 23.36 38 22 38 C22 38.66 22 39.32 22 40 C20.68 40 19.36 40 18 40 C18 40.66 18 41.32 18 42 C17.34 42 16.68 42 16 42 C16 42.66 16 43.32 16 44 C14.68 44 13.36 44 12 44 C12 44.66 12 45.32 12 46 C10.68 46 9.36 46 8 46 C8 46.66 8 47.32 8 48 C6.68 48 5.36 48 4 48 C4 48.66 4 49.32 4 50 C2.68 50 1.36 50 0 50 C0 33.5 0 17 0 0 Z " fill="#F8F8F8" transform="translate(0,0)"/>
<path d="M0 0 C1.98 0 3.96 0 6 0 C6 0.66 6 1.32 6 2 C6.66 2 7.32 2 8 2 C8 17.18 8 32.36 8 48 C7.34 48 6.68 48 6 48 C6 48.66 6 49.32 6 50 C4.02 50 2.04 50 0 50 C0 49.34 0 48.68 0 48 C-0.66 48 -1.32 48 -2 48 C-2 32.82 -2 17.64 -2 2 C-1.34 2 -0.68 2 0 2 C0 1.34 0 0.68 0 0 Z " fill="#4D4D4D" transform="translate(64,0)"/>
<path d="M0 0 C1.98 0 3.96 0 6 0 C6 0.66 6 1.32 6 2 C6.66 2 7.32 2 8 2 C8 17.18 8 32.36 8 48 C7.34 48 6.68 48 6 48 C6 48.66 6 49.32 6 50 C4.02 50 2.04 50 0 50 C0 49.34 0 48.68 0 48 C-0.66 48 -1.32 48 -2 48 C-2 32.82 -2 17.64 -2 2 C-1.34 2 -0.68 2 0 2 C0 1.34 0 0.68 0 0 Z " fill="#4D4D4D" transform="translate(50,0)"/>
<path d="M0 0 C1.32 0 2.64 0 4 0 C4 0.66 4 1.32 4 2 C5.32 2 6.64 2 8 2 C8 2.66 8 3.32 8 4 C9.32 4 10.64 4 12 4 C12 4.66 12 5.32 12 6 C9.36 6 6.72 6 4 6 C4 18.54 4 31.08 4 44 C6.64 44 9.28 44 12 44 C12 44.66 12 45.32 12 46 C10.68 46 9.36 46 8 46 C8 46.66 8 47.32 8 48 C6.68 48 5.36 48 4 48 C4 48.66 4 49.32 4 50 C2.68 50 1.36 50 0 50 C0 33.5 0 17 0 0 Z " fill="#AFAFAF" transform="translate(0,0)"/>
<path d="M0 0 C3.96 0 7.92 0 12 0 C12 0.66 12 1.32 12 2 C12.66 2 13.32 2 14 2 C14 2.66 14 3.32 14 4 C10.7 4 7.4 4 4 4 C4 3.34 4 2.68 4 2 C3.34 2 2.68 2 2 2 C2 13.22 2 24.44 2 36 C3.98 36 5.96 36 8 36 C8 34.68 8 33.36 8 32 C11.3 32 14.6 32 18 32 C18 32.66 18 33.32 18 34 C16.68 34 15.36 34 14 34 C14 34.66 14 35.32 14 36 C13.34 36 12.68 36 12 36 C12 36.66 12 37.32 12 38 C8.04 38 4.08 38 0 38 C0 25.46 0 12.92 0 0 Z " fill="#F1F1F1" transform="translate(4,6)"/>
<path d="M0 0 C1.32 0 2.64 0 4 0 C4 13.86 4 27.72 4 42 C2.68 42 1.36 42 0 42 C0 28.14 0 14.28 0 0 Z " fill="#F4F4F4" transform="translate(66,4)"/>
<path d="M0 0 C1.32 0 2.64 0 4 0 C4 13.86 4 27.72 4 42 C2.68 42 1.36 42 0 42 C0 28.14 0 14.28 0 0 Z " fill="#F4F4F4" transform="translate(52,4)"/>
<path d="M0 0 C1.32 0 2.64 0 4 0 C4 0.66 4 1.32 4 2 C3.34 2 2.68 2 2 2 C2 17.18 2 32.36 2 48 C2.66 48 3.32 48 4 48 C4 48.66 4 49.32 4 50 C2.68 50 1.36 50 0 50 C0 33.5 0 17 0 0 Z " fill="#000000" transform="translate(0,0)"/>
<path d="M0 0 C1.32 0 2.64 0 4 0 C4 0.66 4 1.32 4 2 C4.66 2 5.32 2 6 2 C6 3.98 6 5.96 6 8 C5.34 8 4.68 8 4 8 C4 8.66 4 9.32 4 10 C2.68 10 1.36 10 0 10 C0 8.68 0 7.36 0 6 C0.66 6 1.32 6 2 6 C2 5.34 2 4.68 2 4 C1.34 4 0.68 4 0 4 C0 2.68 0 1.36 0 0 Z " fill="#5F5F5F" transform="translate(36,20)"/>
<path d="M0 0 C3.3 0 6.6 0 10 0 C10 0.66 10 1.32 10 2 C8.68 2 7.36 2 6 2 C6 2.66 6 3.32 6 4 C5.34 4 4.68 4 4 4 C4 4.66 4 5.32 4 6 C2.68 6 1.36 6 0 6 C0 4.02 0 2.04 0 0 Z " fill="#757575" transform="translate(12,38)"/>
<path d="M0 0 C3.3 0 6.6 0 10 0 C10 0.66 10 1.32 10 2 C8.68 2 7.36 2 6 2 C6 2.66 6 3.32 6 4 C5.34 4 4.68 4 4 4 C4 4.66 4 5.32 4 6 C2.68 6 1.36 6 0 6 C0 4.02 0 2.04 0 0 Z " fill="#757575" transform="translate(22,32)"/>
<path d="M0 0 C1.32 0 2.64 0 4 0 C4 0.66 4 1.32 4 2 C5.32 2 6.64 2 8 2 C8 2.66 8 3.32 8 4 C8.66 4 9.32 4 10 4 C10 4.66 10 5.32 10 6 C8.02 6 6.04 6 4 6 C4 5.34 4 4.68 4 4 C2.68 4 1.36 4 0 4 C0 2.68 0 1.36 0 0 Z " fill="#656565" transform="translate(18,10)"/>
<path d="M0 0 C1.32 0 2.64 0 4 0 C4 0.66 4 1.32 4 2 C5.32 2 6.64 2 8 2 C8 2.66 8 3.32 8 4 C5.36 4 2.72 4 0 4 C0 2.68 0 1.36 0 0 Z " fill="#4C4C4C" transform="translate(28,16)"/>
<path d="M0 0 C1.32 0 2.64 0 4 0 C4 0.66 4 1.32 4 2 C4.66 2 5.32 2 6 2 C6 2.66 6 3.32 6 4 C4.02 4 2.04 4 0 4 C0 2.68 0 1.36 0 0 Z " fill="#5B5B5B" transform="translate(12,6)"/>
</svg>
